<?xml version="1.0" encoding="UTF-8" standalone="no"?>
<!-- Created with Inkscape (http://www.inkscape.org/) -->

<svg
   xmlns:dc="http://purl.org/dc/elements/1.1/"
   xmlns:cc="http://creativecommons.org/ns#"
   xmlns:rdf="http://www.w3.org/1999/02/22-rdf-syntax-ns#"
   xmlns:svg="http://www.w3.org/2000/svg"
   xmlns="http://www.w3.org/2000/svg"
   xmlns:sodipodi="http://sodipodi.sourceforge.net/DTD/sodipodi-0.dtd"
   xmlns:inkscape="http://www.inkscape.org/namespaces/inkscape"
   version="1.1"
   id="svg71"
   width="72"
   height="87"
   viewBox="0 0 71.999997 87"
   sodipodi:docname="logo-miniResidente.svg"
   inkscape:version="0.92.4 (unknown)"
   inkscape:export-filename="/home/paulo/Documents/Proyectos/realState/files/img/logoResidente.png"
   inkscape:export-xdpi="88.972641"
   inkscape:export-ydpi="88.972641">
  <metadata
     id="metadata77">
    <rdf:RDF>
      <cc:Work
         rdf:about="">
        <dc:format>image/svg+xml</dc:format>
        <dc:type
           rdf:resource="http://purl.org/dc/dcmitype/StillImage" />
        <dc:title></dc:title>
      </cc:Work>
    </rdf:RDF>
  </metadata>
  <defs
     id="defs75" />
  <sodipodi:namedview
     pagecolor="#ffffff"
     bordercolor="#666666"
     borderopacity="1"
     objecttolerance="10"
     gridtolerance="10"
     guidetolerance="10"
     inkscape:pageopacity="0"
     inkscape:pageshadow="2"
     inkscape:window-width="1366"
     inkscape:window-height="740"
     id="namedview73"
     showgrid="false"
     inkscape:snap-text-baseline="true"
     inkscape:zoom="2.8284271"
     inkscape:cx="50.257302"
     inkscape:cy="84.390817"
     inkscape:window-x="0"
     inkscape:window-y="0"
     inkscape:window-maximized="1"
     inkscape:current-layer="svg71"
     width="306.66666px" />
  <g
     id="g3784"
     transform="matrix(1.0702407,0,0,1.0702407,-47.8797,-70.00304)">
    <path
       style="fill:#93989c;stroke-width:1.33333337"
       d="m 65.492087,120.96516 c 0,0 -1.492088,9.65609 -1.492088,13.70151 h -5.603931 -5.60393 z m 2.538141,-2.08613 9.111176,-8.64266 c 5.497845,13.14185 21.681263,24.4303 0.709244,24.4303 H 66.336452 Z m -13.882549,11.20431 5.265132,-21.82246 8.172669,-9.337928 -2.294863,18.831128 z m 15.891304,-33.963391 7.372519,-7.453281 5.079174,8.560683 c 0,0 2.848436,7.178399 3.701245,12.772649 l 0.82924,5.33334 -4.843915,-4.59489 -4.843914,-4.59489 -4.61756,4.47551 -4.882725,5.00585 z m 15.848583,-6.786614 -0.912003,-6 c 7.601121,10.794843 6.600379,13.361691 0.912003,6 z m -23.352682,2.817536 6.659612,-8.372142 -1.272567,11.757341 -7.999528,9.46148 z m 8.761539,-9.651205 6.033617,-6.840325 0.0033,10.54249 -7.110855,6.995167 z"
       id="path3794"
       inkscape:connector-curvature="0"
       sodipodi:nodetypes="cccccccccccccccccccccccccccccccccccccc" />
    <path
       style="fill:#ec9f18;stroke-width:1.33333337"
       d="m 77.333332,122.53535 v -12.13133 l 10.09878,8.9778 1.932733,15.28485 h -6.015756 -6.015757 z m 13.707426,12.10159 -1.730687,-13.77231 15.126219,13.62331 z m -2.177054,-17.86049 -2.009226,-18.254511 9.838315,9.358541 5.826207,21.34393 z M 77.333332,106.14356 c 0,0 0.0032,-0.98645 0.03908,-8.873701 l 0.03909,-8.603191 7.593802,8.206977 2.015853,18.459695 z m 9.382723,-10.644038 c 0,0 -0.202234,-2.046101 -1.740492,-12.166187 l 8.22712,8.889746 3.002855,12.729999 z m -9.382723,-9.297691 c 0.02743,-5.900252 -0.0033,-10.54249 -0.0033,-10.54249 l 6.039874,6.347248 1.121965,11.415738 z"
       id="path3792"
       inkscape:connector-curvature="0"
       sodipodi:nodetypes="cccccccccccccccccscccccccccccccc" />
  </g>
</svg>
